<svg xmlns="http://www.w3.org/2000/svg" version="1.1" xmlns:xlink="http://www.w3.org/1999/xlink" xmlns:svgjs="http://svgjs.dev/svgjs" viewBox="0 0 12.640914159533338 11.550983461083758"><g transform="matrix(1,0,0,1,1.0067675045713562,9.459715956512401)"><g><path d=" M 0.405 0.8354999999999998 L 0.8445 0.8354999999999998 L 0.8445 1.0739999999999998 L 0.075 1.0739999999999998 L 0.075 0.8504999999999998 L 0.51 0.25349999999999984 L 0.075 0.25349999999999984 L 0.075 0.016499999999999737 L 0.8445 0.016499999999999737 L 0.8445 0.23999999999999988 L 0.405 0.8354999999999998 M 1.234464111328125 1.0147499999999998 Q 1.1099641113281251 0.9449999999999998 1.037214111328125 0.8212499999999998 Q 0.964464111328125 0.6974999999999998 0.964464111328125 0.5414999999999999 Q 0.964464111328125 0.38549999999999984 1.037214111328125 0.2617499999999998 Q 1.1099641113281251 0.1379999999999998 1.234464111328125 0.06899999999999973 Q 1.358964111328125 -2.220446049250313e-16 1.507464111328125 -2.220446049250313e-16 Q 1.657464111328125 -2.220446049250313e-16 1.781214111328125 0.06899999999999973 Q 1.904964111328125 0.1379999999999998 1.976964111328125 0.2617499999999998 Q 2.048964111328125 0.38549999999999984 2.048964111328125 0.5414999999999999 Q 2.048964111328125 0.6974999999999998 1.976964111328125 0.8212499999999998 Q 1.904964111328125 0.9449999999999998 1.780464111328125 1.0147499999999998 Q 1.655964111328125 1.0844999999999998 1.507464111328125 1.0844999999999998 Q 1.358964111328125 1.0844999999999998 1.234464111328125 1.0147499999999998 M 1.6852141113281252 0.7379999999999998 Q 1.750464111328125 0.6644999999999999 1.750464111328125 0.5414999999999999 Q 1.750464111328125 0.41549999999999987 1.6852141113281252 0.3427499999999998 Q 1.619964111328125 0.2699999999999998 1.507464111328125 0.2699999999999998 Q 1.393464111328125 0.2699999999999998 1.328964111328125 0.3427499999999998 Q 1.264464111328125 0.41549999999999987 1.264464111328125 0.5414999999999999 Q 1.264464111328125 0.6659999999999998 1.328964111328125 0.7387499999999998 Q 1.393464111328125 0.8114999999999999 1.507464111328125 0.8114999999999999 Q 1.619964111328125 0.8114999999999999 1.6852141113281252 0.7379999999999998 M 2.411945068359375 1.0147499999999998 Q 2.287445068359375 0.9449999999999998 2.214695068359375 0.8212499999999998 Q 2.141945068359375 0.6974999999999998 2.141945068359375 0.5414999999999999 Q 2.141945068359375 0.38549999999999984 2.214695068359375 0.2617499999999998 Q 2.287445068359375 0.1379999999999998 2.411945068359375 0.06899999999999973 Q 2.5364450683593747 -2.220446049250313e-16 2.684945068359375 -2.220446049250313e-16 Q 2.834945068359375 -2.220446049250313e-16 2.9586950683593747 0.06899999999999973 Q 3.082445068359375 0.1379999999999998 3.154445068359375 0.2617499999999998 Q 3.226445068359375 0.38549999999999984 3.226445068359375 0.5414999999999999 Q 3.226445068359375 0.6974999999999998 3.154445068359375 0.8212499999999998 Q 3.082445068359375 0.9449999999999998 2.9579450683593747 1.0147499999999998 Q 2.833445068359375 1.0844999999999998 2.684945068359375 1.0844999999999998 Q 2.5364450683593747 1.0844999999999998 2.411945068359375 1.0147499999999998 M 2.8626950683593746 0.7379999999999998 Q 2.927945068359375 0.6644999999999999 2.927945068359375 0.5414999999999999 Q 2.927945068359375 0.41549999999999987 2.8626950683593746 0.3427499999999998 Q 2.797445068359375 0.2699999999999998 2.684945068359375 0.2699999999999998 Q 2.5709450683593746 0.2699999999999998 2.506445068359375 0.3427499999999998 Q 2.4419450683593746 0.41549999999999987 2.4419450683593746 0.5414999999999999 Q 2.4419450683593746 0.6659999999999998 2.506445068359375 0.7387499999999998 Q 2.5709450683593746 0.8114999999999999 2.684945068359375 0.8114999999999999 Q 2.797445068359375 0.8114999999999999 2.8626950683593746 0.7379999999999998 M 4.30789453125 0.9014999999999999 L 3.9328945312499997 0.9014999999999999 L 3.8758945312499997 1.0739999999999998 L 3.5668945312499996 1.0739999999999998 L 3.9523945312499995 0.016499999999999737 L 4.29139453125 0.016499999999999737 L 4.675394531249999 1.0739999999999998 L 4.36489453125 1.0739999999999998 L 4.30789453125 0.9014999999999999 M 4.2343945312499995 0.6764999999999999 L 4.12039453125 0.3344999999999998 L 4.00789453125 0.6764999999999999 L 4.2343945312499995 0.6764999999999999 M 5.30390185546875 1.0739999999999998 L 5.09390185546875 0.6839999999999998 L 5.0624018554687495 0.6839999999999998 L 5.0624018554687495 1.0739999999999998 L 4.768401855468749 1.0739999999999998 L 4.768401855468749 0.016499999999999737 L 5.23190185546875 0.016499999999999737 Q 5.359401855468749 0.016499999999999737 5.44790185546875 0.06074999999999986 Q 5.53640185546875 0.10499999999999987 5.58140185546875 0.1822499999999998 Q 5.62640185546875 0.25949999999999984 5.62640185546875 0.3554999999999998 Q 5.62640185546875 0.4634999999999998 5.567151855468749 0.5452499999999998 Q 5.5079018554687496 0.6269999999999998 5.39390185546875 0.6614999999999998 L 5.63240185546875 1.0739999999999998 L 5.30390185546875 1.0739999999999998 M 5.0624018554687495 0.4829999999999999 L 5.20790185546875 0.4829999999999999 Q 5.267901855468749 0.4829999999999999 5.29790185546875 0.4544999999999998 Q 5.327901855468749 0.4259999999999998 5.327901855468749 0.3719999999999998 Q 5.327901855468749 0.32099999999999984 5.29715185546875 0.29174999999999984 Q 5.266401855468749 0.26249999999999984 5.20790185546875 0.26249999999999984 L 5.0624018554687495 0.26249999999999984 L 5.0624018554687495 0.4829999999999999 M 5.786167968749999 0.2647499999999998 Q 5.851417968749999 0.14249999999999985 5.971417968749999 0.07424999999999982 Q 6.091417968749999 0.005999999999999783 6.24741796875 0.005999999999999783 Q 6.445417968749999 0.005999999999999783 6.580417968749999 0.1117499999999998 Q 6.71541796875 0.2174999999999998 6.7544179687499994 0.3989999999999998 L 6.437917968749999 0.3989999999999998 Q 6.40941796875 0.33899999999999986 6.35916796875 0.3074999999999998 Q 6.308917968749999 0.2759999999999998 6.24291796875 0.2759999999999998 Q 6.140917968749999 0.2759999999999998 6.08016796875 0.3487499999999998 Q 6.019417968749999 0.4214999999999999 6.019417968749999 0.5429999999999998 Q 6.019417968749999 0.6659999999999998 6.08016796875 0.7387499999999998 Q 6.140917968749999 0.8114999999999999 6.24291796875 0.8114999999999999 Q 6.308917968749999 0.8114999999999999 6.35916796875 0.7799999999999998 Q 6.40941796875 0.7484999999999998 6.437917968749999 0.6884999999999999 L 6.7544179687499994 0.6884999999999999 Q 6.71541796875 0.8699999999999999 6.580417968749999 0.9757499999999999 Q 6.445417968749999 1.0815 6.24741796875 1.0815 Q 6.091417968749999 1.0815 5.971417968749999 1.0132499999999998 Q 5.851417968749999 0.9449999999999998 5.786167968749999 0.8227499999999999 Q 5.720917968749999 0.7004999999999999 5.720917968749999 0.5429999999999998 Q 5.720917968749999 0.3869999999999998 5.786167968749999 0.2647499999999998 M 7.559911376953124 0.9014999999999999 L 7.184911376953124 0.9014999999999999 L 7.127911376953124 1.0739999999999998 L 6.818911376953124 1.0739999999999998 L 7.204411376953124 0.016499999999999737 L 7.543411376953125 0.016499999999999737 L 7.927411376953124 1.0739999999999998 L 7.616911376953125 1.0739999999999998 L 7.559911376953124 0.9014999999999999 M 7.486411376953124 0.6764999999999999 L 7.372411376953124 0.3344999999999998 L 7.2599113769531245 0.6764999999999999 L 7.486411376953124 0.6764999999999999 M 8.730668701171874 0.08324999999999982 Q 8.855918701171873 0.1499999999999998 8.923418701171874 0.2699999999999998 Q 8.990918701171875 0.3899999999999998 8.990918701171875 0.5444999999999999 Q 8.990918701171875 0.6974999999999998 8.922668701171874 0.8174999999999999 Q 8.854418701171873 0.9374999999999998 8.729168701171874 1.00575 Q 8.603918701171875 1.0739999999999998 8.438918701171874 1.0739999999999998 L 8.020418701171874 1.0739999999999998 L 8.020418701171874 0.016499999999999737 L 8.438918701171874 0.016499999999999737 Q 8.605418701171875 0.016499999999999737 8.730668701171874 0.08324999999999982 M 8.618918701171873 0.7439999999999998 Q 8.692418701171874 0.6734999999999998 8.692418701171874 0.5444999999999999 Q 8.692418701171874 0.4139999999999998 8.618918701171873 0.3427499999999998 Q 8.545418701171874 0.27149999999999985 8.416418701171875 0.27149999999999985 L 8.314418701171874 0.27149999999999985 L 8.314418701171874 0.8144999999999998 L 8.416418701171875 0.8144999999999998 Q 8.545418701171874 0.8144999999999998 8.618918701171873 0.7439999999999998 M 9.413896728515624 0.016499999999999737 L 9.413896728515624 1.0739999999999998 L 9.119896728515624 1.0739999999999998 L 9.119896728515624 0.016499999999999737 L 9.413896728515624 0.016499999999999737 M 10.247871826171874 0.9014999999999999 L 9.872871826171874 0.9014999999999999 L 9.815871826171874 1.0739999999999998 L 9.506871826171874 1.0739999999999998 L 9.892371826171875 0.016499999999999737 L 10.231371826171873 0.016499999999999737 L 10.615371826171874 1.0739999999999998 L 10.304871826171874 1.0739999999999998 L 10.247871826171874 0.9014999999999999 M 10.174371826171875 0.6764999999999999 L 10.060371826171874 0.3344999999999998 L 9.947871826171873 0.6764999999999999 L 10.174371826171875 0.6764999999999999" fill="#ffffff" fill-rule="nonzero"></path></g><g></g><g clip-path="url(#SvgjsClipPath1003)"><g clip-path="url(#SvgjsClipPath1001d66dfa7b-8173-4a0b-bc0f-9e57c7993755)"><path d=" M 3.4869232788535527 -5.497197699374727 L 3.2160555463100287 -4.3503675140908795 C 3.1399691045843205 -4.02803767914379 3.3543945312658567 -3.780410896072844 3.6639971795970094 -3.919579914938418 L 5.895681684904503 -4.9217075219584645 C 6.139158298426771 -5.032378709923124 6.270857012104722 -5.081074032627598 6.260066571278167 -5.436328545994163 L 6.230738706467537 -6.414938525571725 C 6.197537350078134 -7.523310473037841 4.722013736539226 -7.784217798664557 4.062966812209632 -7.208727621248294 C 4.18918408921669 -7.392247083288039 4.377437708447323 -7.524004966058559 4.593081802560389 -7.579752778899843 C 3.892256504774141 -7.764020306861011 3.3867658537455205 -7.466591489205969 2.6992210985150353 -7.205130807639457 C 2.270607147109521 -6.994416876929249 1.785461347127601 -6.927563785691737 1.3158312489567106 -7.014499686370311 C 1.0778815356470435 -7.060146566632884 0.8920801274495613 -7.246716202743755 0.8474154458962496 -7.484852235220139 C 0.8278064156402208 -7.615247017142786 0.8669389226633034 -7.747632104945605 0.9542904220266881 -7.846409778431097 C 1.0416419213900727 -7.945187451916603 1.1682464324799051 -8.000218918825803 1.3000606046717404 -7.996706479556725 C 1.4950035362242193 -8.000415075276976 1.6800171571004845 -7.910889039841831 1.7980809505127449 -7.755719967763671 L 2.0725454966651133 -7.7800676291158934 C 1.9499598009691546 -8.062808752500379 1.717943398788615 -8.28374347626353 1.4295458945903963 -8.392355976530423 C 1.0187750760137897 -8.56611414449934 0.5438786470020102 -8.387708751065212 0.3491184220853468 -7.98646939467001 C -0.03131378654319322 -7.104420026591629 0.5333859500465139 -6.046956825589245 1.4187554537638487 -5.722690244852766 C 1.6349020165438288 -5.641761897332941 1.866432009604363 -5.6102798688767574 2.0963398020775177 -5.6305564808721895 L 1.3376888085797398 -4.792222232039838 C 1.2106936203902845 -4.6519465012946135 1.350969351135495 -4.676847518586675 1.461363861130249 -4.705622027457488 C 2.1312012262863895 -4.878545758652274 2.531000892808751 -4.7020252138486365 3.1363722909754688 -4.514714228218443 L 3.48664660088364 -5.497474377344682 Z M 2.3127019745484434 -6.700193512550648 L 2.5658623170176154 -6.564067951354101 C 2.5370880303597976 -6.502006847475288 2.4686575707165184 -6.468716353594788 2.4020689588299136 -6.484384696019541 C 2.3247684647667937 -6.502594685054828 2.2768426331159337 -6.579994283974186 2.294994584474091 -6.657308427214328 C 2.2984406854881825 -6.672498380615071 2.304427328257018 -6.686997281070843 2.3127019745484434 -6.700193512550634 Z" fill="#ffffff" transform="matrix(1,0,0,1,0,0)" fill-rule="evenodd"></path></g><g clip-path="url(#SvgjsClipPath1001d66dfa7b-8173-4a0b-bc0f-9e57c7993755)"><path d=" M 8.562857314852959 -0.24999999999998757 C 8.631477490696636 -0.5488006767555049 8.643862379048176 -0.8577661111616264 8.599378806881301 -1.1611005549191082 C 8.554926998574786 -1.4737069553750626 8.543427910184239 -1.790117355282705 8.565070738612256 -2.105125788257719 C 8.516632652901926 -2.1585545014728105 8.461914810396081 -2.205933278515209 8.402107414334285 -2.2462315529126533 C 8.098416666483644 -2.4132272661811527 7.758157136396115 -2.502569153969498 7.4116002820505305 -2.506308844629616 C 7.258320686719457 -2.5184826753057195 7.105041091388396 -2.5267830144030734 6.952038174027242 -2.533976641620777 C 7.630452556250649 -2.0387230754788996 7.602508081289568 -1.9651267354824071 7.547172487307239 -1.1688475380766228 C 7.5392519335667485 -0.8474690345814118 7.456451305434336 -0.5323719073864126 7.305355941604439 -0.2486166101504228 Z" fill="#ffffff" transform="matrix(1,0,0,1,0,0)" fill-rule="evenodd"></path></g><g clip-path="url(#SvgjsClipPath1001d66dfa7b-8173-4a0b-bc0f-9e57c7993755)"><path d=" M 6.744529696593497 -7.329635894099683 C 6.405923367028623 -7.395422140994848 6.061882702393332 -7.429233353324391 5.7169477163415765 -7.430623353117439 C 6.101778331440232 -7.233021021199129 6.346425354703153 -6.839458418558768 6.353307047138402 -6.406914864444284 L 6.38097484412957 -5.44490556306143 C 6.3925953188658635 -5.055619659395724 6.2631100289472075 -4.946885217220425 5.935799990541695 -4.799969215197338 L 3.768028096283799 -3.8263394390781906 C 3.637827855252572 -3.1196417092997875 3.5762113134247318 -2.4020174740266915 3.5840372462925374 -1.6834685621123349 C 3.590677517570422 -0.9491652299667797 3.56024294088014 -0.9378214332003996 3.301272361042829 -0.24972332203008918 L 4.366759223172647 -0.24972332203008918 C 4.389568474138027 -0.5731256405772065 4.432537062175281 -0.8947894146797424 4.495414479181585 -1.2128393352926228 L 4.695452651427709 -2.291883417948072 C 4.639467461505409 -2.5445992451106845 4.602473756026508 -2.8011505926068434 4.584781463463042 -3.059388106483059 C 4.42441452643789 -3.1345170171145877 4.286279983019458 -3.2499627949473977 4.183875085061036 -3.3944451280460637 C 4.351363547993993 -3.3013489880761675 4.526156301985856 -3.222049152093601 4.706519770224176 -3.157332107831774 C 4.785390482491761 -2.5992604126280714 4.9094737546093565 -2.04851944645066 5.077544927875718 -1.5105448309175626 C 5.248808591251042 -0.9173472634269126 5.199006556666939 -0.8625650253844155 5.1328805218580476 -0.24944664406016237 L 6.198644061957785 -0.24944664406016237 C 6.1056946211183325 -0.7789090004423631 6.044806850236083 -1.3135017809047467 6.016313279785993 -1.8503053779690557 C 5.913530720313089 -2.4749868863180193 5.954790529171301 -3.1148924539767853 6.136944874667483 -3.7212018105117286 C 6.09479050255316 -3.407296506261556 6.091538009462761 -3.089388538768385 6.1272611457205794 -2.7746864754439464 C 7.464999130243486 -2.5514073537252093 8.9123015908514 -2.987175156336086 9.041510202800144 -1.2114559454430296 C 9.086864245000523 -0.8869653800079522 9.050439022268144 -0.5562852248109378 8.935542540323972 -0.24944664406017658 L 10.193043913572492 -0.24944664406017658 C 10.214627613708242 -0.601999150091487 10.169284358368888 -0.955451233637354 10.059408454105153 -1.2911392007775753 C 9.928413631808379 -1.749269073673874 9.881543030817486 -2.227349203780965 9.921069469149323 -2.70219684732709 C 9.985803650873333 -3.427444041127992 9.953984487925975 -4.158075288571412 9.826445603439524 -4.8749489450433945 C 10.347706898753103 -4.085863374855342 10.047787979368866 -3.6240878430727657 10.400275713036326 -2.914685528219258 C 10.266086897629165 -4.181040596504944 10.356560593790288 -4.5274414148343585 9.93905353719358 -5.345024815923325 C 9.294670545269309 -6.60390957902138 8.04574618908806 -7.05710809373669 6.744529696593497 -7.329635894099683 Z" fill="#ffffff" transform="matrix(1,0,0,1,0,0)" fill-rule="evenodd"></path></g></g></g><defs><clipPath id="SvgjsClipPath1003"><path d=" M 0.22876350517377642 -8.452948451941046 h 10.169852140043073 v 8.202948451941046 h -10.169852140043073 Z"></path></clipPath><clipPath id="SvgjsClipPath1001d66dfa7b-8173-4a0b-bc0f-9e57c7993755"><path d=" M 0.22876350517377642 -8.452948451941046 L 10.39861564521685 -8.452948451941046 L 10.39861564521685 -0.25 L 0.22876350517377642 -0.25 Z"></path></clipPath></defs></svg>